STARTFONT 2.1
FONT -Patrick J. Thomas-mono_size_13_09_design_1_pixel-Normal-R-Normal--19-190-72-72-P-0--
SIZE 19 72 72
FONTBOUNDINGBOX 15 17 0 -4
STARTPROPERTIES 24
BREAK_CHAR 32
CAP_HEIGHT 14
CODEPAGE "MS Windows 1252 Western (ANSI)"
COPYRIGHT "Copyright (c) 2026, Patrick J. Thomas. All rights reserved."
CREATION_YEAR 2026
DEFAULT_CHAR -1
DESIGNER "Patrick J. Thomas"
ENC_MODE 2
FAMILY_NAME "mono_size_13_09_design_1_pixel"
FONTNAME_REGISTRY "-"
FONT_ASCENT 14
FONT_DESCENT 5
FOUNDRY "Patrick J. Thomas"
HI_VERSION 1
PIXEL_SIZE 19
POINT_SIZE 190
RESOLUTION_X 72
RESOLUTION_Y 72
SETWIDTH_NAME "Normal"
SLANT "R"
SPACING "P"
WEIGHT 400
WEIGHT_NAME "Normal"
X_HEIGHT 9
ENDPROPERTIES
CHARS 150
STARTCHAR .uni0020
ENCODING 32
SWIDTH 473 0
DWIDTH 9 0
BBX 0 0 0 0
BITMAP
ENDCHAR
STARTCHAR .uni0021
ENCODING 33
SWIDTH 473 0
DWIDTH 9 0
BBX 1 13 4 0
BITMAP
80
80
80
80
80
80
80
80
80
80
00
00
80
ENDCHAR
STARTCHAR .uni0022
ENCODING 34
SWIDTH 473 0
DWIDTH 9 0
BBX 3 3 3 10
BITMAP
A0
A0
A0
ENDCHAR
STARTCHAR .uni0023
ENCODING 35
SWIDTH 473 0
DWIDTH 9 0
BBX 7 7 1 3
BITMAP
28
28
FE
28
FE
28
28
ENDCHAR
STARTCHAR .uni0024
ENCODING 36
SWIDTH 473 0
DWIDTH 9 0
BBX 7 15 1 -2
BITMAP
10
10
38
44
82
80
40
38
04
02
82
44
38
10
10
ENDCHAR
STARTCHAR .uni0025
ENCODING 37
SWIDTH 473 0
DWIDTH 9 0
BBX 7 7 1 3
BITMAP
82
04
08
10
20
40
82
ENDCHAR
STARTCHAR .uni0026
ENCODING 38
SWIDTH 473 0
DWIDTH 9 0
BBX 7 13 1 0
BITMAP
20
50
88
88
50
20
50
8A
84
84
84
4A
30
ENDCHAR
STARTCHAR .uni0027
ENCODING 39
SWIDTH 473 0
DWIDTH 9 0
BBX 1 3 4 10
BITMAP
80
80
80
ENDCHAR
STARTCHAR .uni0028
ENCODING 40
SWIDTH 473 0
DWIDTH 9 0
BBX 5 17 2 -4
BITMAP
08
10
20
40
80
80
80
80
80
80
80
80
80
40
20
10
08
ENDCHAR
STARTCHAR .uni0029
ENCODING 41
SWIDTH 473 0
DWIDTH 9 0
BBX 5 17 2 -4
BITMAP
80
40
20
10
08
08
08
08
08
08
08
08
08
10
20
40
80
ENDCHAR
STARTCHAR .uni002A
ENCODING 42
SWIDTH 473 0
DWIDTH 9 0
BBX 7 7 1 2
BITMAP
10
92
54
38
54
92
10
ENDCHAR
STARTCHAR .uni002B
ENCODING 43
SWIDTH 473 0
DWIDTH 9 0
BBX 7 7 1 2
BITMAP
10
10
10
FE
10
10
10
ENDCHAR
STARTCHAR .uni002C
ENCODING 44
SWIDTH 473 0
DWIDTH 9 0
BBX 3 3 3 -2
BITMAP
20
40
80
ENDCHAR
STARTCHAR .uni002D
ENCODING 45
SWIDTH 473 0
DWIDTH 9 0
BBX 7 1 1 5
BITMAP
FE
ENDCHAR
STARTCHAR .uni002E
ENCODING 46
SWIDTH 473 0
DWIDTH 9 0
BBX 1 1 4 0
BITMAP
80
ENDCHAR
STARTCHAR .uni002F
ENCODING 47
SWIDTH 473 0
DWIDTH 9 0
BBX 7 7 1 3
BITMAP
02
04
08
10
20
40
80
ENDCHAR
STARTCHAR .uni0030
ENCODING 48
SWIDTH 473 0
DWIDTH 9 0
BBX 7 13 1 0
BITMAP
38
44
82
82
86
8A
92
A2
C2
82
82
44
38
ENDCHAR
STARTCHAR .uni0031
ENCODING 49
SWIDTH 473 0
DWIDTH 9 0
BBX 4 13 1 0
BITMAP
10
30
50
90
10
10
10
10
10
10
10
10
10
ENDCHAR
STARTCHAR .uni0032
ENCODING 50
SWIDTH 473 0
DWIDTH 9 0
BBX 7 13 1 0
BITMAP
38
44
82
02
02
04
08
10
20
40
80
80
FE
ENDCHAR
STARTCHAR .uni0033
ENCODING 51
SWIDTH 473 0
DWIDTH 9 0
BBX 7 13 1 0
BITMAP
38
44
82
02
02
04
18
04
02
02
82
44
38
ENDCHAR
STARTCHAR .uni0034
ENCODING 52
SWIDTH 473 0
DWIDTH 9 0
BBX 7 13 1 0
BITMAP
04
0C
14
24
44
84
FE
04
04
04
04
04
04
ENDCHAR
STARTCHAR .uni0035
ENCODING 53
SWIDTH 473 0
DWIDTH 9 0
BBX 7 13 1 0
BITMAP
FE
80
80
80
80
80
F8
04
02
02
82
44
38
ENDCHAR
STARTCHAR .uni0036
ENCODING 54
SWIDTH 473 0
DWIDTH 9 0
BBX 7 13 1 0
BITMAP
38
44
82
80
80
80
B8
C4
82
82
82
44
38
ENDCHAR
STARTCHAR .uni0037
ENCODING 55
SWIDTH 473 0
DWIDTH 9 0
BBX 7 13 1 0
BITMAP
FE
02
02
02
04
08
10
10
10
10
10
10
10
ENDCHAR
STARTCHAR .uni0038
ENCODING 56
SWIDTH 473 0
DWIDTH 9 0
BBX 7 13 1 0
BITMAP
38
44
82
82
82
44
38
44
82
82
82
44
38
ENDCHAR
STARTCHAR .uni0039
ENCODING 57
SWIDTH 473 0
DWIDTH 9 0
BBX 7 13 1 0
BITMAP
38
44
82
82
82
46
3A
02
02
02
82
44
38
ENDCHAR
STARTCHAR .uni003A
ENCODING 58
SWIDTH 473 0
DWIDTH 9 0
BBX 1 10 4 1
BITMAP
80
00
00
00
00
00
00
00
00
80
ENDCHAR
STARTCHAR .uni003B
ENCODING 59
SWIDTH 473 0
DWIDTH 9 0
BBX 3 13 3 -2
BITMAP
20
00
00
00
00
00
00
00
00
00
20
40
80
ENDCHAR
STARTCHAR .uni003C
ENCODING 60
SWIDTH 473 0
DWIDTH 9 0
BBX 5 9 2 1
BITMAP
08
10
20
40
80
40
20
10
08
ENDCHAR
STARTCHAR .uni003D
ENCODING 61
SWIDTH 473 0
DWIDTH 9 0
BBX 7 5 1 3
BITMAP
FE
00
00
00
FE
ENDCHAR
STARTCHAR .uni003E
ENCODING 62
SWIDTH 473 0
DWIDTH 9 0
BBX 5 9 2 1
BITMAP
80
40
20
10
08
10
20
40
80
ENDCHAR
STARTCHAR .uni003F
ENCODING 63
SWIDTH 473 0
DWIDTH 9 0
BBX 7 13 1 0
BITMAP
38
44
82
82
02
04
08
10
10
10
00
00
10
ENDCHAR
STARTCHAR .uni0040
ENCODING 64
SWIDTH 473 0
DWIDTH 9 0
BBX 7 13 1 0
BITMAP
18
24
42
8E
92
A2
A2
A2
92
8E
40
20
1C
ENDCHAR
STARTCHAR .uni0041
ENCODING 65
SWIDTH 473 0
DWIDTH 9 0
BBX 7 13 1 0
BITMAP
38
44
82
82
82
82
FE
82
82
82
82
82
82
ENDCHAR
STARTCHAR .uni0042
ENCODING 66
SWIDTH 473 0
DWIDTH 9 0
BBX 7 13 1 0
BITMAP
F8
84
82
82
82
84
F8
84
82
82
82
84
F8
ENDCHAR
STARTCHAR .uni0043
ENCODING 67
SWIDTH 473 0
DWIDTH 9 0
BBX 7 13 1 0
BITMAP
38
44
82
80
80
80
80
80
80
80
82
44
38
ENDCHAR
STARTCHAR .uni0044
ENCODING 68
SWIDTH 473 0
DWIDTH 9 0
BBX 7 13 1 0
BITMAP
F8
84
82
82
82
82
82
82
82
82
82
84
F8
ENDCHAR
STARTCHAR .uni0045
ENCODING 69
SWIDTH 473 0
DWIDTH 9 0
BBX 7 13 1 0
BITMAP
FE
80
80
80
80
80
FE
80
80
80
80
80
FE
ENDCHAR
STARTCHAR .uni0046
ENCODING 70
SWIDTH 473 0
DWIDTH 9 0
BBX 7 13 1 0
BITMAP
FE
80
80
80
80
80
FE
80
80
80
80
80
80
ENDCHAR
STARTCHAR .uni0047
ENCODING 71
SWIDTH 473 0
DWIDTH 9 0
BBX 7 13 1 0
BITMAP
38
44
82
80
80
80
8E
82
82
82
82
44
38
ENDCHAR
STARTCHAR .uni0048
ENCODING 72
SWIDTH 473 0
DWIDTH 9 0
BBX 7 13 1 0
BITMAP
82
82
82
82
82
82
FE
82
82
82
82
82
82
ENDCHAR
STARTCHAR .uni0049
ENCODING 73
SWIDTH 473 0
DWIDTH 9 0
BBX 7 13 1 0
BITMAP
FE
10
10
10
10
10
10
10
10
10
10
10
FE
ENDCHAR
STARTCHAR .uni004A
ENCODING 74
SWIDTH 473 0
DWIDTH 9 0
BBX 7 13 1 0
BITMAP
02
02
02
02
02
02
02
02
02
82
82
44
38
ENDCHAR
STARTCHAR .uni004B
ENCODING 75
SWIDTH 473 0
DWIDTH 9 0
BBX 7 13 1 0
BITMAP
82
84
88
90
A0
C0
80
C0
A0
90
88
84
82
ENDCHAR
STARTCHAR .uni004C
ENCODING 76
SWIDTH 473 0
DWIDTH 9 0
BBX 7 13 1 0
BITMAP
80
80
80
80
80
80
80
80
80
80
80
80
FE
ENDCHAR
STARTCHAR .uni004D
ENCODING 77
SWIDTH 473 0
DWIDTH 9 0
BBX 7 13 1 0
BITMAP
82
C6
AA
92
82
82
82
82
82
82
82
82
82
ENDCHAR
STARTCHAR .uni004E
ENCODING 78
SWIDTH 473 0
DWIDTH 9 0
BBX 7 13 1 0
BITMAP
82
C2
A2
92
8A
86
82
82
82
82
82
82
82
ENDCHAR
STARTCHAR .uni004F
ENCODING 79
SWIDTH 473 0
DWIDTH 9 0
BBX 7 13 1 0
BITMAP
38
44
82
82
82
82
82
82
82
82
82
44
38
ENDCHAR
STARTCHAR .uni0050
ENCODING 80
SWIDTH 473 0
DWIDTH 9 0
BBX 7 13 1 0
BITMAP
F8
84
82
82
82
84
F8
80
80
80
80
80
80
ENDCHAR
STARTCHAR .uni0051
ENCODING 81
SWIDTH 473 0
DWIDTH 9 0
BBX 7 13 1 0
BITMAP
38
44
82
82
82
82
82
82
82
82
8A
44
3A
ENDCHAR
STARTCHAR .uni0052
ENCODING 82
SWIDTH 473 0
DWIDTH 9 0
BBX 7 13 1 0
BITMAP
F8
84
82
82
82
84
F8
84
82
82
82
82
82
ENDCHAR
STARTCHAR .uni0053
ENCODING 83
SWIDTH 473 0
DWIDTH 9 0
BBX 7 13 1 0
BITMAP
38
44
82
80
80
40
38
04
02
02
82
44
38
ENDCHAR
STARTCHAR .uni0054
ENCODING 84
SWIDTH 473 0
DWIDTH 9 0
BBX 7 13 1 0
BITMAP
FE
10
10
10
10
10
10
10
10
10
10
10
10
ENDCHAR
STARTCHAR .uni0055
ENCODING 85
SWIDTH 473 0
DWIDTH 9 0
BBX 7 13 1 0
BITMAP
82
82
82
82
82
82
82
82
82
82
82
44
38
ENDCHAR
STARTCHAR .uni0056
ENCODING 86
SWIDTH 473 0
DWIDTH 9 0
BBX 7 13 1 0
BITMAP
82
82
82
82
82
82
82
82
82
82
44
28
10
ENDCHAR
STARTCHAR .uni0057
ENCODING 87
SWIDTH 473 0
DWIDTH 9 0
BBX 7 13 1 0
BITMAP
82
82
82
82
82
82
82
82
82
92
AA
C6
82
ENDCHAR
STARTCHAR .uni0058
ENCODING 88
SWIDTH 473 0
DWIDTH 9 0
BBX 7 13 1 0
BITMAP
82
82
82
82
44
28
10
28
44
82
82
82
82
ENDCHAR
STARTCHAR .uni0059
ENCODING 89
SWIDTH 473 0
DWIDTH 9 0
BBX 7 13 1 0
BITMAP
82
82
82
82
44
28
10
10
10
10
10
10
10
ENDCHAR
STARTCHAR .uni005A
ENCODING 90
SWIDTH 473 0
DWIDTH 9 0
BBX 7 13 1 0
BITMAP
FE
02
02
02
04
08
10
20
40
80
80
80
FE
ENDCHAR
STARTCHAR .uni005B
ENCODING 91
SWIDTH 473 0
DWIDTH 9 0
BBX 3 17 3 -4
BITMAP
E0
80
80
80
80
80
80
80
80
80
80
80
80
80
80
80
E0
ENDCHAR
STARTCHAR .uni005C
ENCODING 92
SWIDTH 473 0
DWIDTH 9 0
BBX 7 7 1 3
BITMAP
80
40
20
10
08
04
02
ENDCHAR
STARTCHAR .uni005D
ENCODING 93
SWIDTH 473 0
DWIDTH 9 0
BBX 3 17 3 -4
BITMAP
E0
20
20
20
20
20
20
20
20
20
20
20
20
20
20
20
E0
ENDCHAR
STARTCHAR .uni005E
ENCODING 94
SWIDTH 473 0
DWIDTH 9 0
BBX 7 4 1 9
BITMAP
10
28
44
82
ENDCHAR
STARTCHAR .uni005F
ENCODING 95
SWIDTH 473 0
DWIDTH 9 0
BBX 7 1 1 0
BITMAP
FE
ENDCHAR
STARTCHAR .uni0060
ENCODING 96
SWIDTH 473 0
DWIDTH 9 0
BBX 3 3 3 10
BITMAP
80
40
20
ENDCHAR
STARTCHAR .uni0061
ENCODING 97
SWIDTH 473 0
DWIDTH 9 0
BBX 7 9 1 0
BITMAP
38
04
02
02
3E
42
82
42
3E
ENDCHAR
STARTCHAR .uni0062
ENCODING 98
SWIDTH 473 0
DWIDTH 9 0
BBX 7 13 1 0
BITMAP
80
80
80
80
F8
84
82
82
82
82
82
84
F8
ENDCHAR
STARTCHAR .uni0063
ENCODING 99
SWIDTH 473 0
DWIDTH 9 0
BBX 7 9 1 0
BITMAP
38
44
82
80
80
80
82
44
38
ENDCHAR
STARTCHAR .uni0064
ENCODING 100
SWIDTH 473 0
DWIDTH 9 0
BBX 7 13 1 0
BITMAP
02
02
02
02
3E
42
82
82
82
82
82
42
3E
ENDCHAR
STARTCHAR .uni0065
ENCODING 101
SWIDTH 473 0
DWIDTH 9 0
BBX 7 9 1 0
BITMAP
38
44
82
82
FE
80
80
40
3C
ENDCHAR
STARTCHAR .uni0066
ENCODING 102
SWIDTH 473 0
DWIDTH 9 0
BBX 7 13 1 0
BITMAP
0E
10
20
20
F8
20
20
20
20
20
20
20
20
ENDCHAR
STARTCHAR .uni0067
ENCODING 103
SWIDTH 473 0
DWIDTH 9 0
BBX 7 13 1 -4
BITMAP
3E
42
82
82
82
82
82
42
3E
02
02
04
78
ENDCHAR
STARTCHAR .uni0068
ENCODING 104
SWIDTH 473 0
DWIDTH 9 0
BBX 7 13 1 0
BITMAP
80
80
80
80
F8
84
82
82
82
82
82
82
82
ENDCHAR
STARTCHAR .uni0069
ENCODING 105
SWIDTH 473 0
DWIDTH 9 0
BBX 7 12 1 0
BITMAP
10
00
00
70
10
10
10
10
10
10
10
FE
ENDCHAR
STARTCHAR .uni006A
ENCODING 106
SWIDTH 473 0
DWIDTH 9 0
BBX 5 16 2 -4
BITMAP
08
00
00
38
08
08
08
08
08
08
08
08
08
08
10
E0
ENDCHAR
STARTCHAR .uni006B
ENCODING 107
SWIDTH 473 0
DWIDTH 9 0
BBX 6 13 2 0
BITMAP
80
80
80
80
84
88
90
A0
C0
A0
90
88
84
ENDCHAR
STARTCHAR .uni006C
ENCODING 108
SWIDTH 473 0
DWIDTH 9 0
BBX 7 13 1 0
BITMAP
70
10
10
10
10
10
10
10
10
10
10
10
FE
ENDCHAR
STARTCHAR .uni006D
ENCODING 109
SWIDTH 473 0
DWIDTH 9 0
BBX 7 9 1 0
BITMAP
38
54
92
92
92
92
92
92
92
ENDCHAR
STARTCHAR .uni006E
ENCODING 110
SWIDTH 473 0
DWIDTH 9 0
BBX 7 9 1 0
BITMAP
F8
84
82
82
82
82
82
82
82
ENDCHAR
STARTCHAR .uni006F
ENCODING 111
SWIDTH 473 0
DWIDTH 9 0
BBX 7 9 1 0
BITMAP
38
44
82
82
82
82
82
44
38
ENDCHAR
STARTCHAR .uni0070
ENCODING 112
SWIDTH 473 0
DWIDTH 9 0
BBX 7 13 1 -4
BITMAP
F8
84
82
82
82
82
82
84
F8
80
80
80
80
ENDCHAR
STARTCHAR .uni0071
ENCODING 113
SWIDTH 473 0
DWIDTH 9 0
BBX 7 13 1 -4
BITMAP
3E
42
82
82
82
82
82
42
3E
02
02
02
02
ENDCHAR
STARTCHAR .uni0072
ENCODING 114
SWIDTH 473 0
DWIDTH 9 0
BBX 7 9 1 0
BITMAP
F8
84
82
80
80
80
80
80
80
ENDCHAR
STARTCHAR .uni0073
ENCODING 115
SWIDTH 473 0
DWIDTH 9 0
BBX 7 9 1 0
BITMAP
38
44
80
40
38
04
02
44
38
ENDCHAR
STARTCHAR .uni0074
ENCODING 116
SWIDTH 473 0
DWIDTH 9 0
BBX 7 13 1 0
BITMAP
10
10
10
10
FE
10
10
10
10
10
10
10
10
ENDCHAR
STARTCHAR .uni0075
ENCODING 117
SWIDTH 473 0
DWIDTH 9 0
BBX 7 9 1 0
BITMAP
82
82
82
82
82
82
82
44
38
ENDCHAR
STARTCHAR .uni0076
ENCODING 118
SWIDTH 473 0
DWIDTH 9 0
BBX 7 9 1 0
BITMAP
82
82
82
82
82
82
44
28
10
ENDCHAR
STARTCHAR .uni0077
ENCODING 119
SWIDTH 473 0
DWIDTH 9 0
BBX 7 9 1 0
BITMAP
92
92
92
92
92
92
92
54
38
ENDCHAR
STARTCHAR .uni0078
ENCODING 120
SWIDTH 473 0
DWIDTH 9 0
BBX 7 9 1 0
BITMAP
82
82
44
28
10
28
44
82
82
ENDCHAR
STARTCHAR .uni0079
ENCODING 121
SWIDTH 473 0
DWIDTH 9 0
BBX 7 13 1 -4
BITMAP
82
82
82
82
82
82
82
42
3E
02
02
04
78
ENDCHAR
STARTCHAR .uni007A
ENCODING 122
SWIDTH 473 0
DWIDTH 9 0
BBX 7 9 1 0
BITMAP
FE
02
04
08
10
20
40
80
FE
ENDCHAR
STARTCHAR .uni007B
ENCODING 123
SWIDTH 473 0
DWIDTH 9 0
BBX 5 17 2 -4
BITMAP
08
10
20
20
20
20
20
40
80
40
20
20
20
20
20
10
08
ENDCHAR
STARTCHAR .uni007C
ENCODING 124
SWIDTH 473 0
DWIDTH 9 0
BBX 1 17 4 -4
BITMAP
80
80
80
80
80
80
80
80
80
80
80
80
80
80
80
80
80
ENDCHAR
STARTCHAR .uni007D
ENCODING 125
SWIDTH 473 0
DWIDTH 9 0
BBX 5 17 2 -4
BITMAP
80
40
20
20
20
20
20
10
08
10
20
20
20
20
20
40
80
ENDCHAR
STARTCHAR .uni007E
ENCODING 126
SWIDTH 473 0
DWIDTH 9 0
BBX 5 3 2 10
BITMAP
40
A8
10
ENDCHAR
STARTCHAR .uni00AC
ENCODING 172
SWIDTH 473 0
DWIDTH 9 0
BBX 5 3 2 10
BITMAP
F8
08
08
ENDCHAR
STARTCHAR .uni00B7
ENCODING 183
SWIDTH 473 0
DWIDTH 9 0
BBX 1 1 4 5
BITMAP
80
ENDCHAR
STARTCHAR .uni00D7
ENCODING 215
SWIDTH 473 0
DWIDTH 9 0
BBX 5 5 2 3
BITMAP
88
50
20
50
88
ENDCHAR
STARTCHAR .uni0393
ENCODING 915
SWIDTH 473 0
DWIDTH 9 0
BBX 7 13 1 0
BITMAP
FE
80
80
80
80
80
80
80
80
80
80
80
80
ENDCHAR
STARTCHAR .uni0394
ENCODING 916
SWIDTH 947 0
DWIDTH 18 0
BBX 13 13 2 0
BITMAP
0200
0200
0500
0500
0880
0880
1040
1040
2020
2020
4010
4010
FFF8
ENDCHAR
STARTCHAR .uni039B
ENCODING 923
SWIDTH 947 0
DWIDTH 18 0
BBX 13 13 2 0
BITMAP
0200
0200
0500
0500
0880
0880
1040
1040
2020
2020
4010
4010
C018
ENDCHAR
STARTCHAR .uni03A0
ENCODING 928
SWIDTH 473 0
DWIDTH 9 0
BBX 7 13 1 0
BITMAP
FE
82
82
82
82
82
82
82
82
82
82
82
82
ENDCHAR
STARTCHAR .uni03A3
ENCODING 931
SWIDTH 473 0
DWIDTH 9 0
BBX 7 13 1 0
BITMAP
FE
80
40
20
10
08
04
08
10
20
40
80
FE
ENDCHAR
STARTCHAR .uni03B1
ENCODING 945
SWIDTH 473 0
DWIDTH 9 0
BBX 7 9 1 0
BITMAP
32
4A
84
84
84
84
84
4A
32
ENDCHAR
STARTCHAR .uni03B2
ENCODING 946
SWIDTH 473 0
DWIDTH 9 0
BBX 7 15 1 -2
BITMAP
F0
88
84
88
90
A0
90
88
84
82
84
88
F0
80
80
ENDCHAR
STARTCHAR .uni03B3
ENCODING 947
SWIDTH 473 0
DWIDTH 9 0
BBX 7 11 1 -2
BITMAP
82
82
82
82
82
82
44
28
10
20
C0
ENDCHAR
STARTCHAR .uni03B4
ENCODING 948
SWIDTH 473 0
DWIDTH 9 0
BBX 7 13 1 0
BITMAP
3C
40
80
80
40
38
44
82
82
82
82
44
38
ENDCHAR
STARTCHAR .uni03B5
ENCODING 949
SWIDTH 473 0
DWIDTH 9 0
BBX 7 9 1 0
BITMAP
3E
40
80
80
FE
80
80
40
3E
ENDCHAR
STARTCHAR .uni03B8
ENCODING 952
SWIDTH 473 0
DWIDTH 9 0
BBX 7 13 1 0
BITMAP
38
44
82
82
82
82
FE
82
82
82
82
44
38
ENDCHAR
STARTCHAR .uni03BB
ENCODING 955
SWIDTH 473 0
DWIDTH 9 0
BBX 7 11 1 0
BITMAP
80
80
80
40
20
10
28
44
82
82
82
ENDCHAR
STARTCHAR .uni03BC
ENCODING 956
SWIDTH 473 0
DWIDTH 9 0
BBX 7 11 1 -2
BITMAP
82
82
82
82
82
82
82
84
F8
80
80
ENDCHAR
STARTCHAR .uni03BD
ENCODING 957
SWIDTH 473 0
DWIDTH 9 0
BBX 7 9 1 0
BITMAP
82
82
82
82
82
84
88
90
E0
ENDCHAR
STARTCHAR .uni03C0
ENCODING 960
SWIDTH 473 0
DWIDTH 9 0
BBX 7 9 1 0
BITMAP
FE
44
44
44
44
44
44
44
44
ENDCHAR
STARTCHAR .uni03C3
ENCODING 963
SWIDTH 473 0
DWIDTH 9 0
BBX 7 9 1 0
BITMAP
3E
44
84
84
84
84
84
48
30
ENDCHAR
STARTCHAR .uni03C4
ENCODING 964
SWIDTH 473 0
DWIDTH 9 0
BBX 7 9 1 0
BITMAP
FE
10
10
10
10
10
10
10
10
ENDCHAR
STARTCHAR .uni03C6
ENCODING 966
SWIDTH 473 0
DWIDTH 9 0
BBX 7 13 1 0
BITMAP
04
8A
92
92
92
92
54
38
10
10
10
10
10
ENDCHAR
STARTCHAR .uni03C7
ENCODING 967
SWIDTH 473 0
DWIDTH 9 0
BBX 7 13 1 0
BITMAP
02
02
02
82
44
28
10
28
44
82
80
80
80
ENDCHAR
STARTCHAR .uni03C8
ENCODING 968
SWIDTH 473 0
DWIDTH 9 0
BBX 7 13 1 0
BITMAP
92
92
92
92
92
92
54
38
10
10
10
10
10
ENDCHAR
STARTCHAR .uni201C
ENCODING 8220
SWIDTH 473 0
DWIDTH 9 0
BBX 5 3 2 10
BITMAP
A0
50
28
ENDCHAR
STARTCHAR .uni201D
ENCODING 8221
SWIDTH 473 0
DWIDTH 9 0
BBX 5 3 2 10
BITMAP
28
50
A0
ENDCHAR
STARTCHAR .uni2102
ENCODING 8450
SWIDTH 473 0
DWIDTH 9 0
BBX 7 13 1 0
BITMAP
38
64
A2
A0
A0
A0
A0
A0
A0
A0
A2
64
38
ENDCHAR
STARTCHAR .uni2115
ENCODING 8469
SWIDTH 473 0
DWIDTH 9 0
BBX 7 13 1 0
BITMAP
82
C2
A2
D2
AA
96
8A
86
82
82
82
82
82
ENDCHAR
STARTCHAR .uni211A
ENCODING 8474
SWIDTH 473 0
DWIDTH 9 0
BBX 7 13 1 0
BITMAP
38
64
A2
A2
A2
A2
A2
A2
A2
A2
AA
64
3A
ENDCHAR
STARTCHAR .uni211D
ENCODING 8477
SWIDTH 473 0
DWIDTH 9 0
BBX 7 13 1 0
BITMAP
F8
A4
A2
A2
A2
A4
B8
A4
A2
A2
A2
A2
A2
ENDCHAR
STARTCHAR .uni2124
ENCODING 8484
SWIDTH 473 0
DWIDTH 9 0
BBX 7 13 1 0
BITMAP
FE
02
02
06
0A
14
28
50
A0
C0
80
80
FE
ENDCHAR
STARTCHAR .uni2190
ENCODING 8592
SWIDTH 473 0
DWIDTH 9 0
BBX 7 5 1 3
BITMAP
20
40
BE
40
20
ENDCHAR
STARTCHAR .uni2192
ENCODING 8594
SWIDTH 473 0
DWIDTH 9 0
BBX 7 5 1 3
BITMAP
08
04
FA
04
08
ENDCHAR
STARTCHAR .uni2194
ENCODING 8596
SWIDTH 473 0
DWIDTH 9 0
BBX 7 5 1 3
BITMAP
28
44
BA
44
28
ENDCHAR
STARTCHAR .uni2200
ENCODING 8704
SWIDTH 947 0
DWIDTH 18 0
BBX 13 13 2 0
BITMAP
C018
4010
4010
2020
2020
1040
1FC0
0880
0880
0500
0500
0200
0200
ENDCHAR
STARTCHAR .uni2202
ENCODING 8706
SWIDTH 473 0
DWIDTH 9 0
BBX 7 13 1 0
BITMAP
30
08
04
02
02
02
3E
42
82
82
82
42
3C
ENDCHAR
STARTCHAR .uni2203
ENCODING 8707
SWIDTH 947 0
DWIDTH 18 0
BBX 9 13 4 0
BITMAP
FF80
0080
0080
0080
0080
0080
FF80
0080
0080
0080
0080
0080
FF80
ENDCHAR
STARTCHAR .uni2205
ENCODING 8709
SWIDTH 947 0
DWIDTH 18 0
BBX 13 13 2 0
BITMAP
0F88
1050
2020
4050
8088
8108
8208
8408
8808
5010
2020
5040
8F80
ENDCHAR
STARTCHAR .uni2208
ENCODING 8712
SWIDTH 473 0
DWIDTH 9 0
BBX 7 9 1 1
BITMAP
1E
20
40
80
FE
80
40
20
1E
ENDCHAR
STARTCHAR .uni2209
ENCODING 8713
SWIDTH 473 0
DWIDTH 9 0
BBX 7 9 1 1
BITMAP
1E
22
44
88
FE
A0
40
A0
1E
ENDCHAR
STARTCHAR .uni2218
ENCODING 8728
SWIDTH 473 0
DWIDTH 9 0
BBX 3 3 3 4
BITMAP
40
A0
40
ENDCHAR
STARTCHAR .uni221E
ENCODING 8734
SWIDTH 947 0
DWIDTH 18 0
BBX 13 7 2 2
BITMAP
3060
4890
8508
8208
8508
4890
3060
ENDCHAR
STARTCHAR .uni2227
ENCODING 8743
SWIDTH 473 0
DWIDTH 9 0
BBX 7 4 1 3
BITMAP
10
28
44
82
ENDCHAR
STARTCHAR .uni2228
ENCODING 8744
SWIDTH 473 0
DWIDTH 9 0
BBX 7 4 1 3
BITMAP
82
44
28
10
ENDCHAR
STARTCHAR .uni2229
ENCODING 8745
SWIDTH 473 0
DWIDTH 9 0
BBX 7 11 1 0
BITMAP
38
44
82
82
82
82
82
82
82
82
82
ENDCHAR
STARTCHAR .uni222A
ENCODING 8746
SWIDTH 473 0
DWIDTH 9 0
BBX 7 11 1 0
BITMAP
82
82
82
82
82
82
82
82
82
44
38
ENDCHAR
STARTCHAR .uni2260
ENCODING 8800
SWIDTH 473 0
DWIDTH 9 0
BBX 7 9 1 1
BITMAP
10
10
FE
10
10
10
FE
10
10
ENDCHAR
STARTCHAR .uni2261
ENCODING 8801
SWIDTH 473 0
DWIDTH 9 0
BBX 7 5 1 3
BITMAP
FE
00
FE
00
FE
ENDCHAR
STARTCHAR .uni2264
ENCODING 8804
SWIDTH 473 0
DWIDTH 9 0
BBX 5 11 2 0
BITMAP
08
10
20
40
80
40
20
10
08
00
F8
ENDCHAR
STARTCHAR .uni2265
ENCODING 8805
SWIDTH 473 0
DWIDTH 9 0
BBX 5 11 2 0
BITMAP
80
40
20
10
08
10
20
40
80
00
F8
ENDCHAR
STARTCHAR .uni2282
ENCODING 8834
SWIDTH 473 0
DWIDTH 9 0
BBX 7 11 1 0
BITMAP
1E
20
40
80
80
80
80
80
40
20
1E
ENDCHAR
STARTCHAR .uni2286
ENCODING 8838
SWIDTH 473 0
DWIDTH 9 0
BBX 7 13 1 -2
BITMAP
1E
20
40
80
80
80
80
80
40
20
1E
00
1E
ENDCHAR
STARTCHAR .uni22C2
ENCODING 8898
SWIDTH 473 0
DWIDTH 9 0
BBX 7 15 1 -4
BITMAP
38
44
82
82
82
82
82
82
82
82
82
82
82
82
82
ENDCHAR
STARTCHAR .uni22C3
ENCODING 8899
SWIDTH 473 0
DWIDTH 9 0
BBX 7 15 1 -4
BITMAP
82
82
82
82
82
82
82
82
82
82
82
82
82
44
38
ENDCHAR
STARTCHAR .uni27E8
ENCODING 10216
SWIDTH 473 0
DWIDTH 9 0
BBX 7 13 1 -2
BITMAP
02
04
08
10
20
40
80
40
20
10
08
04
02
ENDCHAR
STARTCHAR .uni27E9
ENCODING 10217
SWIDTH 473 0
DWIDTH 9 0
BBX 7 13 1 -2
BITMAP
80
40
20
10
08
04
02
04
08
10
20
40
80
ENDCHAR
ENDFONT
